<svg xmlns="http://www.w3.org/2000/svg" xmlns:xlink="http://www.w3.org/1999/xlink" width="292" height="261" viewBox="0 0 292 261">
  <defs>
    <clipPath id="clip-path">
      <rect id="Rectángulo_459786" data-name="Rectángulo 459786" width="283.094" height="210.84" fill="none"/>
    </clipPath>
    <clipPath id="clip-path-2">
      <rect id="Rectángulo_459788" data-name="Rectángulo 459788" width="171.936" height="203.434" rx="7" fill="none"/>
    </clipPath>
    <clipPath id="clip-path-3">
      <path id="Rectángulo_459789" data-name="Rectángulo 459789" d="M4.431,0H67.618a4.431,4.431,0,0,1,4.431,4.431v0a4.431,4.431,0,0,1-4.431,4.431H4.431A4.431,4.431,0,0,1,0,4.431v0A4.431,4.431,0,0,1,4.431,0Z" fill="none"/>
    </clipPath>
    <clipPath id="clip-path-4">
      <path id="Rectángulo_459790" data-name="Rectángulo 459790" d="M85.968,0h0a85.968,85.968,0,0,1,85.968,85.968v31.5a85.969,85.969,0,0,1-85.969,85.969h0A85.967,85.967,0,0,1,0,117.467v-31.5A85.968,85.968,0,0,1,85.968,0Z" fill="none"/>
    </clipPath>
    <clipPath id="clip-path-5">
      <rect id="Rectángulo_459791" data-name="Rectángulo 459791" width="72.049" height="8.862" rx="4.431" fill="none"/>
    </clipPath>
    <clipPath id="clip-path-8">
      <path id="Trazado_1025221" data-name="Trazado 1025221" d="M2542.309,1649.229c-10.29,4.75-18.613,13.333-25.989,23.759l-.018.016.011.012c5.742,25.456,22.648,38.864,43.312,48.216,14.152-17.725,23.113-37.354,16.653-62.637l0-.015-.022-.006c-10.715-5.62-21.434-9.379-32.161-9.379q-.9,0-1.79.035" transform="translate(-2516.303 -1649.194)" fill="none"/>
    </clipPath>
  </defs>
  <g id="Grupo_1188143" data-name="Grupo 1188143" transform="translate(-601.711 -9707)">
    <rect id="Rectángulo_459567" data-name="Rectángulo 459567" width="292" height="261" rx="20" transform="translate(601.711 9707)" fill="#b6c1c9"/>
    <g id="Grupo_1188142" data-name="Grupo 1188142" transform="translate(606.164 9732.075)">
      <g id="Grupo_1188125" data-name="Grupo 1188125" transform="translate(0 0.005)">
        <g id="Grupo_1188124" data-name="Grupo 1188124" transform="translate(0 0)" clip-path="url(#clip-path)">
          <path id="Trazado_1025168" data-name="Trazado 1025168" d="M862.887,79.361V265.889a8.457,8.457,0,0,1-8.453,8.453H699.4a8.457,8.457,0,0,1-8.453-8.453V79.361a8.457,8.457,0,0,1,8.453-8.453h155.03a8.457,8.457,0,0,1,8.453,8.453" transform="translate(-636.263 -65.296)" fill="#fff" fill-rule="evenodd"/>
        </g>
      </g>
      <g id="Grupo_1188127" data-name="Grupo 1188127" transform="translate(54.688 5.617)">
        <g id="Enmascarar_grupo_1188126" data-name="Enmascarar grupo 1188126" clip-path="url(#clip-path-2)">
          <rect id="Rectángulo_459787" data-name="Rectángulo 459787" width="85.968" height="203.019" transform="translate(0 0)" fill="#f0ca4b"/>
          <path id="Trazado_1025169" data-name="Trazado 1025169" d="M905.675,1001.175a28.088,28.088,0,1,0,28.223,28.087,28.169,28.169,0,0,0-28.223-28.087" transform="translate(-862.691 -927.546)" fill="#5f99c7" fill-rule="evenodd"/>
          <path id="Trazado_1025170" data-name="Trazado 1025170" d="M981.061,1082.649a21.639,21.639,0,1,0,21.743,21.639,21.7,21.7,0,0,0-21.743-21.639" transform="translate(-938.077 -1002.571)" fill="#a2d2f7" fill-rule="evenodd"/>
          <path id="Trazado_1025171" data-name="Trazado 1025171" d="M1054,1315.576a5.972,5.972,0,0,1,.516-5.657,6.034,6.034,0,0,1,5.027-2.691h16.524a6.034,6.034,0,0,1,5.027,2.691,5.972,5.972,0,0,1,.516,5.657l-3.553,8.294a6.026,6.026,0,0,1-5.543,3.645h-9.418a6.026,6.026,0,0,1-5.542-3.645l-3.553-8.294" transform="translate(-1024.819 -1209.375)" fill="#fff" fill-rule="evenodd"/>
          <path id="Trazado_1025172" data-name="Trazado 1025172" d="M1169.278,1148.544a5.539,5.539,0,1,0,5.565,5.539,5.555,5.555,0,0,0-5.565-5.539" transform="translate(-1126.294 -1063.25)" fill="#fff" fill-rule="evenodd"/>
          <path id="Trazado_1025173" data-name="Trazado 1025173" d="M2173.147,1657.065v3.178a1.59,1.59,0,0,1-1.589,1.589h-24.475a1.59,1.59,0,0,1-1.589-1.589v-3.178a1.59,1.59,0,0,1,1.589-1.589h24.475a1.59,1.59,0,0,1,1.589,1.589" transform="translate(-2030.368 -1530.059)" fill="#70d792" fill-rule="evenodd"/>
          <path id="Trazado_1025174" data-name="Trazado 1025174" d="M2169.257,1659.727h-24.475a1.789,1.789,0,0,1-1.787-1.786v-3.178a1.789,1.789,0,0,1,1.787-1.787h24.475a1.789,1.789,0,0,1,1.787,1.787v3.178a1.789,1.789,0,0,1-1.787,1.786m-24.475-6.355a1.392,1.392,0,0,0-1.391,1.391v3.178a1.392,1.392,0,0,0,1.391,1.391h24.475a1.393,1.393,0,0,0,1.391-1.391v-3.178a1.392,1.392,0,0,0-1.391-1.391Z" transform="translate(-2028.068 -1527.757)" fill="#5784a9"/>
          <path id="Trazado_1025175" data-name="Trazado 1025175" d="M1937.084,1040.2v4.431a2.217,2.217,0,0,1-2.216,2.216H1867.25a2.217,2.217,0,0,1-2.215-2.216V1040.2a2.216,2.216,0,0,1,2.215-2.216h67.618a2.217,2.217,0,0,1,2.216,2.216" transform="translate(-1772.108 -961.444)" fill="#fff" fill-rule="evenodd"/>
        </g>
      </g>
      <g id="Grupo_1188129" data-name="Grupo 1188129" transform="translate(147.615 82.16)">
        <g id="Grupo_1188128" data-name="Grupo 1188128" clip-path="url(#clip-path-3)">
          <path id="Trazado_1025176" data-name="Trazado 1025176" d="M1906.548,1068.864a1.987,1.987,0,1,1-1.987,1.987,1.988,1.988,0,0,1,1.987-1.987" transform="translate(-1901.432 -1066.42)" fill="#8392af" fill-rule="evenodd"/>
          <path id="Trazado_1025177" data-name="Trazado 1025177" d="M1996.571,1068.864a1.987,1.987,0,1,1-1.987,1.987,1.988,1.988,0,0,1,1.987-1.987" transform="translate(-1984.33 -1066.42)" fill="#8392af" fill-rule="evenodd"/>
          <path id="Trazado_1025178" data-name="Trazado 1025178" d="M2086.593,1068.864a1.987,1.987,0,1,1-1.987,1.987,1.988,1.988,0,0,1,1.987-1.987" transform="translate(-2067.227 -1066.42)" fill="#8392af" fill-rule="evenodd"/>
          <path id="Trazado_1025179" data-name="Trazado 1025179" d="M2176.618,1068.864a1.987,1.987,0,1,1-1.987,1.987,1.988,1.988,0,0,1,1.987-1.987" transform="translate(-2150.127 -1066.42)" fill="#8392af" fill-rule="evenodd"/>
          <path id="Trazado_1025180" data-name="Trazado 1025180" d="M2266.641,1068.864a1.987,1.987,0,1,1-1.986,1.987,1.988,1.988,0,0,1,1.986-1.987" transform="translate(-2233.025 -1066.42)" fill="#8392af" fill-rule="evenodd"/>
          <path id="Trazado_1025181" data-name="Trazado 1025181" d="M2356.664,1068.864a1.987,1.987,0,1,1-1.987,1.987,1.988,1.988,0,0,1,1.987-1.987" transform="translate(-2315.922 -1066.42)" fill="#8392af" fill-rule="evenodd"/>
          <path id="Trazado_1025182" data-name="Trazado 1025182" d="M2446.688,1068.864a1.987,1.987,0,1,1-1.987,1.987,1.988,1.988,0,0,1,1.987-1.987" transform="translate(-2398.821 -1066.42)" fill="#8392af" fill-rule="evenodd"/>
          <path id="Trazado_1025183" data-name="Trazado 1025183" d="M2536.71,1068.864a1.987,1.987,0,1,1-1.987,1.987,1.988,1.988,0,0,1,1.987-1.987" transform="translate(-2481.718 -1066.42)" fill="#8392af" fill-rule="evenodd"/>
        </g>
      </g>
      <g id="Grupo_1188131" data-name="Grupo 1188131" transform="translate(54.688 5.617)">
        <g id="Grupo_1188130" data-name="Grupo 1188130" clip-path="url(#clip-path-4)">
          <path id="Trazado_1025184" data-name="Trazado 1025184" d="M1886.054,1014.184h-23.322a.2.2,0,1,1,0-.4h23.322a.2.2,0,0,1,0,.4m23.321-2.441h-46.643a.2.2,0,1,1,0-.4h46.643a.2.2,0,1,1,0,.4m23.19-23.792h-67.618a2.416,2.416,0,0,1-2.414-2.413v-4.431a2.416,2.416,0,0,1,2.414-2.413h67.618a2.416,2.416,0,0,1,2.414,2.413v4.431a2.416,2.416,0,0,1-2.414,2.413m-67.618-8.862a2.02,2.02,0,0,0-2.018,2.018v4.431a2.02,2.02,0,0,0,2.018,2.018h67.618a2.02,2.02,0,0,0,2.018-2.018v-4.431a2.02,2.02,0,0,0-2.018-2.018Zm21.106-2.441h-23.322a.2.2,0,1,1,0-.4h23.322a.2.2,0,0,1,0,.4m23.321-2.441h-46.643a.2.2,0,1,1,0-.4h46.643a.2.2,0,1,1,0,.4" transform="translate(-1769.804 -902.348)" fill="#5784a9"/>
          <path id="Trazado_1025185" data-name="Trazado 1025185" d="M1937.084,1511.1v4.431a2.217,2.217,0,0,1-2.216,2.216H1867.25a2.216,2.216,0,0,1-2.215-2.216V1511.1a2.217,2.217,0,0,1,2.215-2.216h67.618a2.217,2.217,0,0,1,2.216,2.216" transform="translate(-1772.108 -1395.074)" fill="#fff" fill-rule="evenodd"/>
        </g>
      </g>
      <g id="Grupo_1188133" data-name="Grupo 1188133" transform="translate(147.615 119.431)">
        <g id="Grupo_1188132" data-name="Grupo 1188132" clip-path="url(#clip-path-5)">
          <path id="Trazado_1025186" data-name="Trazado 1025186" d="M1906.548,1539.767a1.987,1.987,0,1,1-1.987,1.987,1.988,1.988,0,0,1,1.987-1.987" transform="translate(-1901.432 -1537.323)" fill="#8392af" fill-rule="evenodd"/>
          <path id="Trazado_1025187" data-name="Trazado 1025187" d="M1996.571,1539.767a1.987,1.987,0,1,1-1.987,1.987,1.988,1.988,0,0,1,1.987-1.987" transform="translate(-1984.33 -1537.323)" fill="#8392af" fill-rule="evenodd"/>
          <path id="Trazado_1025188" data-name="Trazado 1025188" d="M2086.593,1539.767a1.987,1.987,0,1,1-1.987,1.987,1.988,1.988,0,0,1,1.987-1.987" transform="translate(-2067.227 -1537.323)" fill="#8392af" fill-rule="evenodd"/>
          <path id="Trazado_1025189" data-name="Trazado 1025189" d="M2176.618,1539.767a1.987,1.987,0,1,1-1.987,1.987,1.988,1.988,0,0,1,1.987-1.987" transform="translate(-2150.127 -1537.323)" fill="#8392af" fill-rule="evenodd"/>
          <path id="Trazado_1025190" data-name="Trazado 1025190" d="M2266.641,1539.767a1.987,1.987,0,1,1-1.986,1.987,1.988,1.988,0,0,1,1.986-1.987" transform="translate(-2233.025 -1537.323)" fill="#8392af" fill-rule="evenodd"/>
          <path id="Trazado_1025191" data-name="Trazado 1025191" d="M2356.664,1539.767a1.987,1.987,0,1,1-1.987,1.987,1.988,1.988,0,0,1,1.987-1.987" transform="translate(-2315.922 -1537.323)" fill="#8392af" fill-rule="evenodd"/>
        </g>
      </g>
      <g id="Grupo_1188135" data-name="Grupo 1188135" transform="translate(54.688 5.617)">
        <g id="Grupo_1188134" data-name="Grupo 1188134" clip-path="url(#clip-path-4)">
          <path id="Trazado_1025192" data-name="Trazado 1025192" d="M1932.565,1515.646h-67.618a2.416,2.416,0,0,1-2.414-2.413V1508.8a2.416,2.416,0,0,1,2.414-2.413h67.618a2.416,2.416,0,0,1,2.414,2.413v4.431a2.416,2.416,0,0,1-2.414,2.413m-67.618-8.862a2.02,2.02,0,0,0-2.018,2.018v4.431a2.02,2.02,0,0,0,2.018,2.018h67.618a2.02,2.02,0,0,0,2.018-2.018V1508.8a2.02,2.02,0,0,0-2.018-2.018Z" transform="translate(-1769.804 -1392.771)" fill="#5784a9"/>
        </g>
      </g>
      <g id="Grupo_1188137" data-name="Grupo 1188137" transform="translate(0 0.005)">
        <g id="Grupo_1188136" data-name="Grupo 1188136" transform="translate(0 0)" clip-path="url(#clip-path)">
          <path id="Trazado_1025193" data-name="Trazado 1025193" d="M852.132,272.238H697.1a8.661,8.661,0,0,1-8.651-8.651V77.059a8.661,8.661,0,0,1,8.651-8.651h155.03a8.661,8.661,0,0,1,8.651,8.651V263.587a8.66,8.66,0,0,1-8.651,8.651M697.1,68.8a8.264,8.264,0,0,0-8.255,8.255V263.587a8.264,8.264,0,0,0,8.255,8.255h155.03a8.264,8.264,0,0,0,8.255-8.255V77.059a8.264,8.264,0,0,0-8.255-8.255Z" transform="translate(-633.961 -62.994)" fill="#5281a5"/>
          <path id="Trazado_1025194" data-name="Trazado 1025194" d="M862.887,79v12.99H690.951V79a8.1,8.1,0,0,1,8.091-8.091H854.8A8.1,8.1,0,0,1,862.887,79" transform="translate(-636.263 -65.296)" fill="#abccef" fill-rule="evenodd"/>
          <path id="Trazado_1025195" data-name="Trazado 1025195" d="M860.585,89.885H688.649a.2.2,0,0,1-.2-.2V76.7a8.3,8.3,0,0,1,8.289-8.289H852.493a8.3,8.3,0,0,1,8.289,8.289v12.99a.2.2,0,0,1-.2.2m-171.738-.4h171.54V76.7a7.9,7.9,0,0,0-7.893-7.893H696.74a7.9,7.9,0,0,0-7.893,7.893Z" transform="translate(-633.961 -62.994)" fill="#5281a5"/>
          <rect id="Rectángulo_459793" data-name="Rectángulo 459793" width="14.766" height="2.653" transform="translate(61.64 9.685)" fill="#fff"/>
          <path id="Trazado_1025196" data-name="Trazado 1025196" d="M791.254,122.922H776.488a.2.2,0,0,1-.2-.2v-2.653a.2.2,0,0,1,.2-.2h14.766a.2.2,0,0,1,.2.2v2.653a.2.2,0,0,1-.2.2m-14.568-.4h14.37v-2.257h-14.37Z" transform="translate(-714.848 -110.386)" fill="#5281a5"/>
          <rect id="Rectángulo_459794" data-name="Rectángulo 459794" width="14.766" height="2.653" transform="translate(61.64 14.826)" fill="#fff"/>
          <path id="Trazado_1025197" data-name="Trazado 1025197" d="M791.254,187.869H776.488a.2.2,0,0,1-.2-.2v-2.653a.2.2,0,0,1,.2-.2h14.766a.2.2,0,0,1,.2.2v2.653a.2.2,0,0,1-.2.2m-14.568-.4h14.37v-2.257h-14.37Z" transform="translate(-714.848 -170.192)" fill="#5281a5"/>
          <rect id="Rectángulo_459795" data-name="Rectángulo 459795" width="14.766" height="2.653" transform="translate(61.64 19.966)" fill="#fff"/>
          <path id="Trazado_1025198" data-name="Trazado 1025198" d="M791.254,252.817H776.488a.2.2,0,0,1-.2-.2v-2.653a.2.2,0,0,1,.2-.2h14.766a.2.2,0,0,1,.2.2v2.653a.2.2,0,0,1-.2.2m-14.568-.4h14.37v-2.257h-14.37Z" transform="translate(-714.848 -230)" fill="#5281a5"/>
          <path id="Trazado_1025199" data-name="Trazado 1025199" d="M2248.11,189.89a2.572,2.572,0,0,1-2.57,2.57h-18.012a2.57,2.57,0,1,1,0-5.141h18.012a2.572,2.572,0,0,1,2.57,2.57" transform="translate(-2048.855 -172.494)" fill="#fff" fill-rule="evenodd"/>
          <path id="Trazado_1025200" data-name="Trazado 1025200" d="M2243.238,190.356h-18.011a2.768,2.768,0,1,1,0-5.536h18.011a2.768,2.768,0,0,1,0,5.536m-18.011-5.141a2.372,2.372,0,1,0,0,4.745h18.011a2.372,2.372,0,1,0,0-4.745Z" transform="translate(-2046.553 -170.192)" fill="#5281a5"/>
          <path id="Trazado_1025201" data-name="Trazado 1025201" d="M2582.26,189.89a2.572,2.572,0,0,1-2.571,2.57h-6.435a2.57,2.57,0,1,1,0-5.141h6.435a2.572,2.572,0,0,1,2.571,2.57" transform="translate(-2367.217 -172.494)" fill="#fff" fill-rule="evenodd"/>
          <path id="Trazado_1025202" data-name="Trazado 1025202" d="M2577.386,190.356h-6.435a2.768,2.768,0,1,1,0-5.536h6.435a2.768,2.768,0,1,1,0,5.536m-6.435-5.141a2.372,2.372,0,1,0,0,4.745h6.435a2.372,2.372,0,1,0,0-4.745Z" transform="translate(-2364.914 -170.192)" fill="#5281a5"/>
          <path id="Trazado_1025203" data-name="Trazado 1025203" d="M267.362,482.773a22.411,22.411,0,1,0,22.518,22.411,22.475,22.475,0,0,0-22.518-22.411" transform="translate(-225.465 -444.562)" fill="#5f99c7" fill-rule="evenodd"/>
          <path id="Trazado_1025204" data-name="Trazado 1025204" d="M265.06,525.49a22.609,22.609,0,1,1,22.716-22.608A22.688,22.688,0,0,1,265.06,525.49m0-44.821a22.213,22.213,0,1,0,22.321,22.213,22.292,22.292,0,0,0-22.321-22.213" transform="translate(-223.163 -442.26)" fill="#5281a5"/>
          <path id="Trazado_1025205" data-name="Trazado 1025205" d="M327.512,547.78a17.266,17.266,0,1,0,17.348,17.265,17.315,17.315,0,0,0-17.348-17.265" transform="translate(-285.615 -504.424)" fill="#a2d2f7" fill-rule="evenodd"/>
          <path id="Trazado_1025206" data-name="Trazado 1025206" d="M325.211,580.207a17.463,17.463,0,1,1,17.546-17.463,17.525,17.525,0,0,1-17.546,17.463m0-34.531a17.068,17.068,0,1,0,17.151,17.068,17.129,17.129,0,0,0-17.151-17.068" transform="translate(-283.314 -502.122)" fill="#5281a5"/>
          <path id="Trazado_1025207" data-name="Trazado 1025207" d="M310.706,711.624h16.773a6.069,6.069,0,0,1,5.983,4.958,6.025,6.025,0,0,1-.387,3.47l-3.587,8.374a6.084,6.084,0,0,1-5.6,3.68h-2.43a17.248,17.248,0,0,1-10.756-20.481" transform="translate(-285.615 -655.299)" fill="#fff" fill-rule="evenodd"/>
          <path id="Trazado_1025208" data-name="Trazado 1025208" d="M321.59,730h-2.43a.2.2,0,0,1-.069-.012,17.513,17.513,0,0,1-8.215-6.3,17.416,17.416,0,0,1-2.664-14.415.2.2,0,0,1,.189-.148h16.775a6.273,6.273,0,0,1,5.24,2.805,6.227,6.227,0,0,1,.538,5.9l-3.587,8.374a6.273,6.273,0,0,1-5.778,3.8m-2.394-.4h2.394a5.878,5.878,0,0,0,5.414-3.56l3.587-8.374a5.859,5.859,0,0,0-5.414-8.153H308.558A17.051,17.051,0,0,0,319.2,729.606" transform="translate(-283.313 -652.998)" fill="#5281a5"/>
          <path id="Trazado_1025209" data-name="Trazado 1025209" d="M358.169,551.414a5.592,5.592,0,1,0,5.619,5.592,5.608,5.608,0,0,0-5.619-5.592" transform="translate(-324.646 -507.771)" fill="#fff" fill-rule="evenodd"/>
          <path id="Trazado_1025210" data-name="Trazado 1025210" d="M355.867,560.494a5.79,5.79,0,1,1,5.817-5.79,5.81,5.81,0,0,1-5.817,5.79m0-11.184a5.394,5.394,0,1,0,5.421,5.394,5.414,5.414,0,0,0-5.421-5.394" transform="translate(-322.344 -505.468)" fill="#5281a5"/>
          <path id="Trazado_1025211" data-name="Trazado 1025211" d="M428.434,801.15h13.413a4.9,4.9,0,0,1,4.523,6.761,17.417,17.417,0,0,1-19.485,6.977q-.034-.073-.066-.148l-2.884-6.773a4.9,4.9,0,0,1,4.5-6.817" transform="translate(-390.02 -737.74)" fill="#fff" fill-rule="evenodd"/>
          <path id="Trazado_1025212" data-name="Trazado 1025212" d="M429.6,813.523a17.612,17.612,0,0,1-5.09-.747.2.2,0,0,1-.122-.106q-.035-.076-.069-.154l-2.884-6.772a5.094,5.094,0,0,1,4.681-7.093h13.413a5.094,5.094,0,0,1,4.706,7.034.2.2,0,0,1-.019.035,17.55,17.55,0,0,1-14.616,7.8m-4.89-1.1a17.22,17.22,0,0,0,19.166-6.906,4.7,4.7,0,0,0-4.347-6.47H426.113a4.7,4.7,0,0,0-4.317,6.542l2.884,6.773.027.062m19.342-6.813h0Z" transform="translate(-387.699 -735.438)" fill="#5281a5"/>
          <path id="Trazado_1025213" data-name="Trazado 1025213" d="M517.51,671.57a4.523,4.523,0,1,0,4.518,4.523,4.522,4.522,0,0,0-4.518-4.523" transform="translate(-472.389 -618.416)" fill="#fff" fill-rule="evenodd"/>
          <path id="Trazado_1025214" data-name="Trazado 1025214" d="M515.208,678.512a4.721,4.721,0,1,1,4.715-4.721,4.724,4.724,0,0,1-4.715,4.721m0-9.046a4.325,4.325,0,1,0,4.32,4.325,4.327,4.327,0,0,0-4.32-4.325" transform="translate(-470.087 -616.114)" fill="#5281a5"/>
          <path id="Trazado_1025215" data-name="Trazado 1025215" d="M2445.727,1598.771l0-.017-.026-.007c-11.79-6.184-32.466-12.127-32.466-12.127l-6.188,1.488c-11.716,5.409-21.191,15.18-29.59,27.051l-.02.018.012.013c6.539,28.983,25.786,44.249,49.313,54.9l6.188-1.488s19.738-42.56,12.771-69.828" transform="translate(-2189.27 -1461.041)" fill="#449f6a" fill-rule="evenodd"/>
          <path id="Trazado_1025216" data-name="Trazado 1025216" d="M2424.466,1667.984a.194.194,0,0,1-.082-.018,125.948,125.948,0,0,1-16.737-9.008,82.586,82.586,0,0,1-14.35-11.606,68.411,68.411,0,0,1-11.163-15.06,74.828,74.828,0,0,1-7.165-19.317.2.2,0,0,1,.038-.244l0,0a105.11,105.11,0,0,1,13.564-15.961,60.072,60.072,0,0,1,16.092-11.138.2.2,0,0,1,.037-.013l6.188-1.488a.2.2,0,0,1,.1,0c.207.059,20.808,6.013,32.484,12.132h.005a.2.2,0,0,1,.145.2c1.586,6.235,1.9,13.786.938,22.444a137.741,137.741,0,0,1-4.723,22.758,194.026,194.026,0,0,1-9.009,24.717.2.2,0,0,1-.133.109l-6.188,1.488a.2.2,0,0,1-.046.005m-49.1-55.067c5.654,24.97,20.808,41.832,49.124,54.661l6.028-1.45a194.665,194.665,0,0,0,8.95-24.579c3.694-12.771,7.346-30.928,3.788-44.959-11.367-5.946-31.176-11.734-32.318-12.066l-6.118,1.471c-10.536,4.869-19.9,13.424-29.454,26.922m55.292,53.381h0Z" transform="translate(-2186.968 -1458.74)" fill="#5281a5"/>
          <path id="Trazado_1025217" data-name="Trazado 1025217" d="M2523.91,1596.817l0-.017-.026-.007c-12.878-6.755-25.761-11.148-38.654-10.638-11.715,5.409-21.191,15.18-29.59,27.051l-.02.018.012.013c6.539,28.983,25.787,44.249,49.313,54.9,16.113-20.181,26.314-42.529,18.959-71.316" transform="translate(-2261.265 -1460.575)" fill="#46d984" fill-rule="evenodd"/>
          <path id="Trazado_1025218" data-name="Trazado 1025218" d="M2502.648,1666.019a.2.2,0,0,1-.082-.018,125.946,125.946,0,0,1-16.737-9.008,82.579,82.579,0,0,1-14.351-11.606,68.424,68.424,0,0,1-11.163-15.06,74.805,74.805,0,0,1-7.165-19.317.2.2,0,0,1,.038-.245l0,0a105.073,105.073,0,0,1,13.564-15.962,60.068,60.068,0,0,1,16.091-11.137.193.193,0,0,1,.076-.018,60.068,60.068,0,0,1,19.4,2.6,105.1,105.1,0,0,1,19.339,8.048l.005,0a.2.2,0,0,1,.145.2,74.814,74.814,0,0,1,2.4,20.463,68.414,68.414,0,0,1-3.095,18.489,82.573,82.573,0,0,1-7.5,16.862,125.935,125.935,0,0,1-10.811,15.633.2.2,0,0,1-.154.074m-49.1-55.067c5.648,24.948,20.78,41.8,49.046,54.625,19.343-24.275,25.157-46.165,18.844-70.953-14.641-7.671-26.863-11.035-38.455-10.586-10.528,4.871-19.884,13.424-29.436,26.913" transform="translate(-2258.963 -1458.263)" fill="#5281a5"/>
          <path id="Trazado_1025219" data-name="Trazado 1025219" d="M2576.278,1658.595l0-.015-.022-.006c-11.311-5.933-22.626-9.792-33.951-9.344-10.29,4.75-18.613,13.333-25.989,23.759l-.017.016.011.012c5.742,25.456,22.648,38.864,43.312,48.216,14.152-17.725,23.113-37.354,16.653-62.637" transform="translate(-2317.139 -1518.663)" fill="#5ab07e" fill-rule="evenodd"/>
        </g>
      </g>
      <g id="Grupo_1188139" data-name="Grupo 1188139" transform="translate(199.162 130.536)">
        <g id="Grupo_1188138" data-name="Grupo 1188138" clip-path="url(#clip-path-8)">
          <path id="Trazado_1025220" data-name="Trazado 1025220" d="M2559.565,1759.22c12.645-16.867,20.163-35.615,14.1-59.343l0-.015-.023-.006c-11.311-5.932-22.626-9.792-33.951-9.344-7.859,3.629-14.571,9.492-20.59,16.706q-1.417,1.847-2.787,3.786l-.018.016.011.012c5.737,25.431,22.615,38.838,43.252,48.188" transform="translate(-2516.302 -1687.209)" fill="#77e7a6" fill-rule="evenodd"/>
        </g>
      </g>
      <g id="Grupo_1188141" data-name="Grupo 1188141" transform="translate(0 0.005)">
        <g id="Grupo_1188140" data-name="Grupo 1188140" transform="translate(0 0)" clip-path="url(#clip-path)">
          <path id="Trazado_1025222" data-name="Trazado 1025222" d="M2557.323,1719.12a.2.2,0,0,1-.082-.018,110.636,110.636,0,0,1-14.7-7.914,72.551,72.551,0,0,1-12.608-10.2,60.1,60.1,0,0,1-9.809-13.233,65.714,65.714,0,0,1-6.295-16.969.2.2,0,0,1,.041-.242h0a92.305,92.305,0,0,1,11.916-14.02,52.767,52.767,0,0,1,14.14-9.787.2.2,0,0,1,.075-.018,52.772,52.772,0,0,1,17.044,2.287,92.345,92.345,0,0,1,16.988,7.07h0a.2.2,0,0,1,.145.2,65.708,65.708,0,0,1,2.11,17.976,60.1,60.1,0,0,1-2.719,16.246,72.584,72.584,0,0,1-6.593,14.815,110.686,110.686,0,0,1-9.5,13.734.2.2,0,0,1-.155.074m-43.1-48.385c4.96,21.892,18.243,36.686,43.044,47.943,16.971-21.3,22.074-40.519,16.538-62.273-12.848-6.73-23.576-9.683-33.748-9.29-9.24,4.275-17.451,11.783-25.834,23.62" transform="translate(-2314.838 -1516.352)" fill="#5281a5"/>
          <path id="Trazado_1025223" data-name="Trazado 1025223" d="M2707.395,1852.691h0l-19.214-11.778,4.808-7.845,11.371,6.97,14.032-22.9,7.845,4.808-18.839,30.74Z" transform="translate(-2475.413 -1673.32)" fill="#fff" fill-rule="evenodd"/>
          <path id="Trazado_1025224" data-name="Trazado 1025224" d="M2705.091,1850.587a.2.2,0,0,1-.1-.029l-19.215-11.778a.2.2,0,0,1-.065-.272l4.809-7.845a.2.2,0,0,1,.123-.089.2.2,0,0,1,.149.024l11.2,6.866,13.928-22.727a.2.2,0,0,1,.272-.065l7.845,4.808a.2.2,0,0,1,.065.272l-18.839,30.74a.2.2,0,0,1-.119.088.206.206,0,0,1-.051.007m-18.942-12.041,18.878,11.571,18.633-30.4-7.507-4.6-13.928,22.727a.2.2,0,0,1-.272.065l-11.2-6.866Z" transform="translate(-2473.11 -1671.017)" fill="#5281a5"/>
          <path id="Trazado_1025225" data-name="Trazado 1025225" d="M2546.861,38.078a29.752,29.752,0,1,0-29.752,29.752,29.752,29.752,0,0,0,29.752-29.752" transform="translate(-2290.484 -7.668)" fill="#e6f3fe"/>
          <path id="Trazado_1025226" data-name="Trazado 1025226" d="M2514.807,65.726A29.957,29.957,0,0,1,2503.15,8.181a29.957,29.957,0,0,1,23.315,55.192,29.759,29.759,0,0,1-11.657,2.354m0-59.5a29.554,29.554,0,1,0,29.554,29.553,29.587,29.587,0,0,0-29.554-29.553" transform="translate(-2288.183 -5.366)" fill="#5281a5"/>
          <path id="Trazado_1025227" data-name="Trazado 1025227" d="M2481.555,32.717a30.212,30.212,0,1,1,30.211,30.212,30.212,30.212,0,0,1-30.211-30.212m5.736-14.756a28.426,28.426,0,0,0-4.084,13.815h.009l10.645-.106a34.887,34.887,0,0,1,1.152-7.943,34.963,34.963,0,0,1-7.721-5.765ZM2508.5,4.325a28.563,28.563,0,0,0-20.3,12.231l0,0a33.335,33.335,0,0,0,7.288,5.549,34.879,34.879,0,0,1,13-17.775l.018,0c.3-.034.594-.06.894-.083-.3.023-.594.047-.887.081l-.022,0,.008-.005m-11.818,37.266a33.243,33.243,0,0,0,14.265,19.191v-22.8a33.008,33.008,0,0,0-14.265,3.606m15.9,19.191a33.24,33.24,0,0,0,14.266-19.191,33.007,33.007,0,0,0-14.266-3.606Zm14.673-20.822a33.4,33.4,0,0,0,.8-7l-15.469.156v3.232a34.646,34.646,0,0,1,14.673,3.612m-31.77-6.672a33.205,33.205,0,0,0,.788,6.672,34.636,34.636,0,0,1,14.671-3.612V33.132ZM2540.3,31.2a28.411,28.411,0,0,0-4.06-13.238h0a34.957,34.957,0,0,1-7.722,5.765,34.7,34.7,0,0,1,1.141,7.579L2540.3,31.2Zm-13.723-8.312A33.268,33.268,0,0,0,2512.584,4.65V26.356a33,33,0,0,0,13.994-3.469m8.758-6.331a28.564,28.564,0,0,0-20.3-12.231l.008.005s0,0,0,0a34.877,34.877,0,0,1,13,17.775,33.343,33.343,0,0,0,7.287-5.549Zm-7.311,14.767a33.194,33.194,0,0,0-.993-6.827,34.665,34.665,0,0,1-14.448,3.5v3.487Zm-44.825,2.09a28.433,28.433,0,0,0,3.689,13.372l.005-.006a34.943,34.943,0,0,1,7.882-6.026,34.935,34.935,0,0,1-.925-7.447l-10.642.106Zm13.3-8.917a33.227,33.227,0,0,0-1,7.155l15.449-.155v-3.5a34.668,34.668,0,0,1-14.447-3.5m-8.731,23.739A28.569,28.569,0,0,0,2508.5,61.107l-.008-.006v0h0a34.873,34.873,0,0,1-13.279-18.708,33.362,33.362,0,0,0-7.434,5.837ZM2510.947,4.65a33.267,33.267,0,0,0-13.993,18.237,33,33,0,0,0,13.993,3.469Zm4.085,56.457a28.568,28.568,0,0,0,20.731-12.872l0-.006a33.329,33.329,0,0,0-7.434-5.837,34.882,34.882,0,0,1-13.28,18.708h0v0l-.008.006m21.612-14.322a28.447,28.447,0,0,0,3.7-13.949h0l-10.648.106a34.943,34.943,0,0,1-.935,7.811,34.969,34.969,0,0,1,7.882,6.026Z" transform="translate(-2285.142 -2.307)" fill="#5f8fc9" fill-rule="evenodd"/>
          <path id="Trazado_1025228" data-name="Trazado 1025228" d="M2509.464,60.824a30.417,30.417,0,0,1-11.837-58.429A30.417,30.417,0,0,1,2521.3,58.434a30.22,30.22,0,0,1-11.837,2.39m0-60.423a30.014,30.014,0,1,0,30.014,30.014A30.048,30.048,0,0,0,2509.464.4M2512.73,59a.2.2,0,0,1-.117-.357l.006,0,.026-.016a34.788,34.788,0,0,0,13.188-18.589.2.2,0,0,1,.289-.117,33.492,33.492,0,0,1,7.478,5.872l.006.006a.2.2,0,0,1,.022.243,29.089,29.089,0,0,1-8.867,8.748A28.416,28.416,0,0,1,2512.753,59h-.022m13.411-18.615a35.2,35.2,0,0,1-12.669,18.123,28.271,28.271,0,0,0,19.738-12.554,33.116,33.116,0,0,0-7.069-5.569M2506.2,59h-.021a28.414,28.414,0,0,1-12.008-4.213,29.091,29.091,0,0,1-8.867-8.748.2.2,0,0,1,.024-.246l.005-.006a33.535,33.535,0,0,1,7.477-5.871.2.2,0,0,1,.289.117,34.786,34.786,0,0,0,13.187,18.589.187.187,0,0,1,.047.035.2.2,0,0,1,.049.213.2.2,0,0,1-.182.13m-20.479-13.046a28.272,28.272,0,0,0,19.738,12.554,35.19,35.19,0,0,1-12.669-18.123,33.158,33.158,0,0,0-7.069,5.569m24.565,12.721a.2.2,0,0,1-.2-.2v-22.8a.2.2,0,0,1,.2-.2,33.023,33.023,0,0,1,14.351,3.628.2.2,0,0,1,.1.229,33.342,33.342,0,0,1-14.351,19.305.2.2,0,0,1-.106.031m.2-22.791V58.118a32.941,32.941,0,0,0,13.833-18.726,32.622,32.622,0,0,0-13.833-3.505m-1.835,22.791a.2.2,0,0,1-.105-.031,33.338,33.338,0,0,1-14.35-19.305.2.2,0,0,1,.1-.229,33.027,33.027,0,0,1,14.351-3.628.2.2,0,0,1,.2.2v22.8a.2.2,0,0,1-.2.2m-14.031-19.286a32.938,32.938,0,0,0,13.834,18.726V35.886a32.622,32.622,0,0,0-13.834,3.505m39.727,5.289a.2.2,0,0,1-.141-.06l0-.005a34.773,34.773,0,0,0-7.837-5.992.2.2,0,0,1-.1-.218,34.867,34.867,0,0,0,.929-7.767.2.2,0,0,1,.2-.2l10.648-.106h0a.2.2,0,0,1,.2.2,28.782,28.782,0,0,1-3.723,14.046.2.2,0,0,1-.146.1l-.026,0m-7.66-6.329a35.151,35.151,0,0,1,7.617,5.8,28.391,28.391,0,0,0,3.542-13.423l-10.254.1a35.245,35.245,0,0,1-.9,7.515m-42.093,6.326h-.024a.2.2,0,0,1-.148-.1,28.785,28.785,0,0,1-3.715-13.465.2.2,0,0,1,.2-.2h.01l10.642-.106h0a.2.2,0,0,1,.2.195,34.8,34.8,0,0,0,.92,7.4.2.2,0,0,1-.1.218,34.714,34.714,0,0,0-7.837,5.992.207.207,0,0,1-.146.062M2481.1,31.307a28.394,28.394,0,0,0,3.529,12.85,35.119,35.119,0,0,1,7.617-5.8,35.142,35.142,0,0,1-.892-7.147Zm43.854,6.55a.2.2,0,0,1-.088-.021,34.279,34.279,0,0,0-14.589-3.592.2.2,0,0,1-.193-.2V30.814a.2.2,0,0,1,.2-.2l15.469-.156a.192.192,0,0,1,.142.058.2.2,0,0,1,.058.142,33.67,33.67,0,0,1-.8,7.042.2.2,0,0,1-.193.155m-14.475-4a34.663,34.663,0,0,1,14.336,3.516,33.325,33.325,0,0,0,.735-6.511l-15.071.152Zm-16.507,4a.2.2,0,0,1-.193-.155,33.489,33.489,0,0,1-.793-6.712.2.2,0,0,1,.2-.2l15.459-.156h0a.2.2,0,0,1,.2.2v3.216a.2.2,0,0,1-.193.2,34.264,34.264,0,0,0-14.588,3.592.2.2,0,0,1-.088.021m-.586-6.674a33.124,33.124,0,0,0,.725,6.187,34.645,34.645,0,0,1,14.335-3.516V31.03ZM2480.9,29.672a.2.2,0,0,1-.2-.2,28.754,28.754,0,0,1,4.113-13.911.2.2,0,0,1,.3-.044h0a34.762,34.762,0,0,0,7.682,5.737.2.2,0,0,1,.1.224,34.732,34.732,0,0,0-1.146,7.9.2.2,0,0,1-.2.192l-10.653.106h0m4.125-13.7a28.366,28.366,0,0,0-3.92,13.3l10.258-.1a35.121,35.121,0,0,1,1.113-7.649,35.126,35.126,0,0,1-7.45-5.547m8.166,13.572a.2.2,0,0,1-.142-.06.2.2,0,0,1-.056-.145,33.509,33.509,0,0,1,1.008-7.2.2.2,0,0,1,.279-.129,34.308,34.308,0,0,0,14.365,3.476.2.2,0,0,1,.193.2v3.5a.2.2,0,0,1-.2.2l-15.45.155Zm1.135-7.069a33.106,33.106,0,0,0-.93,6.671L2508.448,29V25.883a34.69,34.69,0,0,1-14.117-3.405m15.952,6.9a.2.2,0,0,1-.2-.2V25.691a.2.2,0,0,1,.193-.2,34.306,34.306,0,0,0,14.365-3.476.2.2,0,0,1,.17,0,.2.2,0,0,1,.109.131,33.448,33.448,0,0,1,1,6.867.2.2,0,0,1-.054.144.2.2,0,0,1-.142.062l-15.44.156Zm.2-3.492v3.094l15.035-.152a33.011,33.011,0,0,0-.919-6.347,34.689,34.689,0,0,1-14.116,3.405m16.877,3.318a.2.2,0,0,1-.2-.19,34.614,34.614,0,0,0-1.134-7.536.2.2,0,0,1,.1-.224,34.752,34.752,0,0,0,7.678-5.732l.006-.006a.2.2,0,0,1,.3.043,28.777,28.777,0,0,1,4.088,13.33.2.2,0,0,1-.191.208h0l-10.644.106Zm-.91-7.678a35.028,35.028,0,0,1,1.1,7.281l10.242-.1a28.383,28.383,0,0,0-3.892-12.726,35.14,35.14,0,0,1-7.45,5.547m-16.166,2.729a.2.2,0,0,1-.2-.2V2.347a.2.2,0,0,1,.3-.167,33.452,33.452,0,0,1,14.077,18.346.2.2,0,0,1-.1.235,33.03,33.03,0,0,1-14.077,3.49h0m.2-21.542V23.85a32.625,32.625,0,0,0,13.556-3.368,33.054,33.054,0,0,0-13.556-17.773m-1.835,21.542h0a33.029,33.029,0,0,1-14.077-3.49.2.2,0,0,1-.1-.235A33.451,33.451,0,0,1,2508.54,2.18a.2.2,0,0,1,.3.167V24.054a.2.2,0,0,1-.2.2m-13.753-3.769a32.619,32.619,0,0,0,13.556,3.368V2.709a33.045,33.045,0,0,0-13.556,17.773m30.85-.478a.2.2,0,0,1-.188-.138,34.869,34.869,0,0,0-12.929-17.674.191.191,0,0,1-.059-.066.2.2,0,0,1-.016-.172.2.2,0,0,1,.2-.128A28.753,28.753,0,0,1,2533.2,14.141a.2.2,0,0,1-.021.25l0,0a33.541,33.541,0,0,1-7.333,5.584.2.2,0,0,1-.1.026M2513.467,2.316a35.169,35.169,0,0,1,7.341,7.388,34.813,34.813,0,0,1,5.048,9.81,33.142,33.142,0,0,0,6.921-5.284,28.362,28.362,0,0,0-19.311-11.914M2493.187,20a.2.2,0,0,1-.1-.026,33.533,33.533,0,0,1-7.331-5.582.2.2,0,0,1-.026-.255,28.752,28.752,0,0,1,20.444-12.315.189.189,0,0,1,.046,0c.292-.033.581-.057.851-.077h.011a.2.2,0,0,1,.03.395c-.331.025-.6.05-.851.078a34.865,34.865,0,0,0-12.889,17.646.2.2,0,0,1-.117.124.2.2,0,0,1-.072.014m-7.035-5.774a33.155,33.155,0,0,0,6.921,5.284,34.8,34.8,0,0,1,5.048-9.81,35.16,35.16,0,0,1,7.341-7.388,28.361,28.361,0,0,0-19.311,11.914" transform="translate(-2282.84 -0.005)" fill="#5281a5"/>
          <path id="Trazado_1025229" data-name="Trazado 1025229" d="M557.825,1871.588s-7.366-37.707-4.732-48c2.7-10.542,22.222-19.012,23.375-19.5l.053-.023,6.654,1.7A24.737,24.737,0,0,1,601,1835.846c-3.383,13.22-41.352,36.069-41.352,36.069Zm8.014-36.3a11.682,11.682,0,0,0,15.385-8.048,11.614,11.614,0,0,0-.11-6.19,11.851,11.851,0,0,0-1.18-.369,11.676,11.676,0,0,0-14.1,14.607" transform="translate(-508.792 -1661.272)" fill="#c44032" fill-rule="evenodd"/>
          <path id="Trazado_1025230" data-name="Trazado 1025230" d="M557.282,1869.812l-.035,0-1.823-.327a.2.2,0,0,1-.159-.157c-.019-.094-1.86-9.554-3.355-20.151-2.011-14.243-2.473-23.643-1.374-27.937a17.309,17.309,0,0,1,4.678-7.514,45.335,45.335,0,0,1,7.672-6.123,79.436,79.436,0,0,1,11.139-6l.054-.023a.2.2,0,0,1,.126-.01l6.654,1.7a24.934,24.934,0,0,1,17.967,30.323c-.781,3.051-3.452,6.854-7.941,11.3a132.7,132.7,0,0,1-14.077,11.8c-9.809,7.286-19.328,13.03-19.423,13.087a.2.2,0,0,1-.1.028m-1.654-.7,1.615.29c.848-.514,9.956-6.066,19.33-13.03a132.334,132.334,0,0,0,14.033-11.76c4.436-4.4,7.072-8.14,7.835-11.12a24.539,24.539,0,0,0-17.681-29.842l-6.589-1.686a79.037,79.037,0,0,0-11.07,5.963c-6.873,4.482-11.086,9.117-12.183,13.4-1.07,4.184-.592,13.791,1.383,27.783,1.4,9.9,3.1,18.812,3.326,20m11.936-35.192a11.928,11.928,0,0,1-2.96-.375,12.077,12.077,0,0,1-1.2-.375.2.2,0,0,1-.121-.13,11.874,11.874,0,0,1,14.334-14.854,12.072,12.072,0,0,1,1.2.375.2.2,0,0,1,.121.129,11.886,11.886,0,0,1-11.374,15.229m-3.929-1.087c.348.126.706.236,1.067.328a11.478,11.478,0,0,0,13.884-14.263c-.348-.126-.706-.236-1.067-.328a11.478,11.478,0,0,0-13.884,14.264" transform="translate(-506.427 -1658.972)" fill="#5281a5"/>
          <path id="Trazado_1025231" data-name="Trazado 1025231" d="M484.758,1791.089a24.738,24.738,0,0,1,16.547,29.719c-3.383,13.22-35.19,37.785-35.19,37.785s-16.1-36.823-12.717-50.043a24.737,24.737,0,0,1,30.082-17.824q.647.166,1.277.363M474.129,1822.3a11.684,11.684,0,0,0,15.385-8.048,11.616,11.616,0,0,0-.11-6.19,11.844,11.844,0,0,0-1.18-.368,11.676,11.676,0,0,0-14.1,14.607" transform="translate(-417.082 -1648.278)" fill="#f85543" fill-rule="evenodd"/>
          <path id="Trazado_1025232" data-name="Trazado 1025232" d="M463.838,1856.437a.2.2,0,0,1-.181-.118c-.04-.092-4.07-9.338-7.633-20.081a137.743,137.743,0,0,1-4.536-16.607c-1.149-5.9-1.336-10.439-.557-13.483a24.934,24.934,0,0,1,30.323-17.967c.432.111.865.234,1.288.366A24.936,24.936,0,0,1,499.22,1818.5c-.779,3.044-3.122,6.933-6.965,11.558a137.733,137.733,0,0,1-11.955,12.387c-8.285,7.711-16.261,13.885-16.34,13.947a.2.2,0,0,1-.121.041m11.2-68.648a24.572,24.572,0,0,0-23.727,18.456c-.764,2.987-.575,7.465.562,13.31a137.314,137.314,0,0,0,4.523,16.558c3.243,9.776,6.872,18.31,7.519,19.813,1.29-1.008,8.573-6.751,16.113-13.769a137.316,137.316,0,0,0,11.919-12.35c3.8-4.58,6.121-8.416,6.885-11.4a24.514,24.514,0,0,0-16.414-29.481h0c-.416-.13-.842-.251-1.267-.36a24.656,24.656,0,0,0-6.114-.774m.9,33.087a12.028,12.028,0,0,1-4.16-.75.2.2,0,0,1-.121-.129A11.874,11.874,0,0,1,486,1805.143a12.138,12.138,0,0,1,1.2.375.2.2,0,0,1,.121.129,11.886,11.886,0,0,1-11.374,15.229m-3.929-1.086c.348.126.706.236,1.067.328a11.478,11.478,0,0,0,13.884-14.263c-.348-.125-.706-.236-1.067-.328a11.478,11.478,0,0,0-13.884,14.264" transform="translate(-414.806 -1645.924)" fill="#5281a5"/>
          <path id="Trazado_1025233" data-name="Trazado 1025233" d="M647.559,1921.2a11.859,11.859,0,0,0-1.18-.369,11.676,11.676,0,0,0-14.1,14.607,11.676,11.676,0,1,1,15.275-14.238" transform="translate(-575.237 -1761.421)" fill="#be4336" fill-rule="evenodd"/>
          <path id="Trazado_1025234" data-name="Trazado 1025234" d="M630,1933.31a.2.2,0,0,1-.069-.012,11.874,11.874,0,1,1,15.533-14.48.2.2,0,0,1-.259.242,11.7,11.7,0,0,0-1.16-.362,11.478,11.478,0,0,0-13.856,14.359.2.2,0,0,1-.19.254m4.058-22.623a11.481,11.481,0,0,0-4.354,22.1,11.874,11.874,0,0,1,14.44-14.47c.277.071.552.152.823.242a11.5,11.5,0,0,0-10.91-7.869" transform="translate(-572.949 -1759.095)" fill="#5281a5"/>
          <path id="Trazado_1025235" data-name="Trazado 1025235" d="M467.759,151.592a3.089,3.089,0,0,1-1.665-4.144,3.34,3.34,0,0,1,4.27-1.746,3.089,3.089,0,0,1,1.665,4.144,3.34,3.34,0,0,1-4.27,1.746" transform="translate(-428.951 -133.953)" fill="#0f324d" fill-rule="evenodd"/>
          <path id="Trazado_1025236" data-name="Trazado 1025236" d="M603.88,8.252a.713.713,0,0,1-.933.041.672.672,0,0,1-.124-.9l.894-1.319a.674.674,0,0,0-.066-.851L602.569,4.1a.677.677,0,0,1-.017-.915.717.717,0,0,1,.925-.146l1.321.842a.716.716,0,0,0,.869-.088L606.838,2.7a.713.713,0,0,1,.933-.041.672.672,0,0,1,.124.9L607,4.883a.674.674,0,0,0,.066.851l1.083,1.12a.677.677,0,0,1,.017.915.718.718,0,0,1-.925.146l-1.321-.842a.716.716,0,0,0-.869.088L603.88,8.252" transform="translate(-554.704 -2.308)" fill="#0f324d" fill-rule="evenodd"/>
          <path id="Trazado_1025237" data-name="Trazado 1025237" d="M3455.524,1499.948a3.778,3.778,0,0,1-4.587-2.7,3.74,3.74,0,0,1,2.837-4.478,3.778,3.778,0,0,1,4.587,2.7,3.74,3.74,0,0,1-2.837,4.477" transform="translate(-3177.704 -1374.518)" fill="#0f324d" fill-rule="evenodd"/>
          <path id="Trazado_1025238" data-name="Trazado 1025238" d="M3471.775,1270.179a.831.831,0,0,1-.865.665.8.8,0,0,1-.771-.75c-.038-.736-.071-1.375-.094-1.817a.8.8,0,0,0-.677-.74l-1.847-.3a.8.8,0,0,1-.676-.832.824.824,0,0,1,.782-.756l1.875-.111a.829.829,0,0,0,.771-.665c.082-.436.2-1.067.334-1.794a.832.832,0,0,1,.866-.665.8.8,0,0,1,.771.75c.038.736.071,1.375.094,1.817a.8.8,0,0,0,.677.74l1.848.3a.8.8,0,0,1,.676.832.824.824,0,0,1-.782.756l-1.875.111a.828.828,0,0,0-.771.665l-.335,1.794" transform="translate(-3192.447 -1162.491)" fill="#0f324d" fill-rule="evenodd"/>
          <path id="Trazado_1025239" data-name="Trazado 1025239" d="M3352.794,384.5a3.3,3.3,0,0,0-1.782,4.4,3.5,3.5,0,0,0,4.558,1.7,3.3,3.3,0,0,0,1.782-4.4,3.5,3.5,0,0,0-4.558-1.7" transform="translate(-3085.515 -353.802)" fill="#0f324d" fill-rule="evenodd"/>
          <path id="Trazado_1025240" data-name="Trazado 1025240" d="M3497.964,536.483a.769.769,0,0,0-1-.014.7.7,0,0,0-.133.952l.954,1.356a.7.7,0,0,1-.071.895l-1.158,1.209a.7.7,0,0,0-.019.96.767.767,0,0,0,.987.124l1.412-.925a.77.77,0,0,1,.928.065l1.249,1.11a.77.77,0,0,0,1,.014.7.7,0,0,0,.133-.952l-.954-1.356a.7.7,0,0,1,.071-.894l1.158-1.209a.7.7,0,0,0,.019-.96.768.768,0,0,0-.987-.124l-1.412.925a.769.769,0,0,1-.928-.064l-1.25-1.11" transform="translate(-3219.627 -493.846)" fill="#0f324d" fill-rule="evenodd"/>
          <path id="Trazado_1025241" data-name="Trazado 1025241" d="M2.994,1586.172a3.557,3.557,0,0,0-2.942,4.067,3.542,3.542,0,0,0,4.155,2.8,3.49,3.49,0,1,0-1.213-6.869" transform="translate(0 -1460.575)" fill="#0f324d" fill-rule="evenodd"/>
          <path id="Trazado_1025242" data-name="Trazado 1025242" d="M105.578,1769.66a.787.787,0,0,0-1-.249.755.755,0,0,0-.382.94l.609,1.606a.751.751,0,0,1-.3.9l-1.482.961a.748.748,0,0,0-.269.974.781.781,0,0,0,.964.358l1.664-.611a.784.784,0,0,1,.919.284l.971,1.426a.787.787,0,0,0,1,.249.755.755,0,0,0,.382-.94l-.609-1.606a.751.751,0,0,1,.3-.9l1.482-.961a.749.749,0,0,0,.269-.974.781.781,0,0,0-.964-.359l-1.664.611a.784.784,0,0,1-.919-.284l-.971-1.426" transform="translate(-94.539 -1629.287)" fill="#0f324d" fill-rule="evenodd"/>
        </g>
      </g>
    </g>
  </g>
</svg>
