<svg xmlns="http://www.w3.org/2000/svg" width="61.197" height="61.667" viewBox="0 0 61.197 61.667">
  <path id="Trazado_1025243" data-name="Trazado 1025243" d="M63.686,10C53.8,3.777,46.014,1,38.441,1S23.084,3.777,13.2,10a.967.967,0,0,0-.452.818V30.647c0,.648.026,1.3.075,1.935A15.582,15.582,0,1,0,31.387,55.868l6.49,4.665a.967.967,0,0,0,1.129,0L54.537,49.37a22.516,22.516,0,0,0,9.6-18.723V10.823A.967.967,0,0,0,63.686,10ZM18.523,60.732A13.648,13.648,0,1,1,32.171,47.084,13.663,13.663,0,0,1,18.523,60.732Zm.66-30.085V13.892c14.511-8.55,24.007-8.55,38.518,0V30.647a16.026,16.026,0,0,1-6.921,13.5L38.442,53.011l-4.563-3.279a15.612,15.612,0,0,0-.208-6.3H47.765a3.48,3.48,0,0,0,3.476-3.476V24.781a3.48,3.48,0,0,0-3.476-3.476h-.278V18.022a9.046,9.046,0,0,0-18.091,0v3.284h-.278a3.48,3.48,0,0,0-3.476,3.476v8.445a15.473,15.473,0,0,0-6.44-1.709c-.013-.289-.02-.58-.02-.871Zm26.37-9.341h-1.9V18.022a5.206,5.206,0,0,0-10.412,0v3.284H31.331V18.022a7.111,7.111,0,0,1,14.222,0Zm-3.84,0H35.17V18.022a3.271,3.271,0,0,1,6.543,0Zm6.052,1.935a1.543,1.543,0,0,1,1.541,1.541V39.954A1.543,1.543,0,0,1,47.765,41.5h-14.7a15.665,15.665,0,0,0-5.491-7.086V24.781a1.543,1.543,0,0,1,1.541-1.541ZM62.2,30.647a20.627,20.627,0,0,1-8.8,17.153L38.442,58.556,32.383,54.2a15.485,15.485,0,0,0,1.005-2.44l4.49,3.227a.967.967,0,0,0,1.129,0l12.9-9.274a17.891,17.891,0,0,0,7.726-15.068V13.341a.967.967,0,0,0-.471-.83c-8.1-4.841-14.494-7-20.722-7h0c-6.228,0-12.62,2.159-20.722,7a.967.967,0,0,0-.471.83V30.647c0,.3.007.605.02.906a15.5,15.5,0,0,0-2.549.42c-.025-.439-.038-.882-.038-1.325V11.358C32.6.19,44.281.19,62.2,11.358ZM36.06,33.9v1.789a2.382,2.382,0,1,0,4.764,0V33.9a4.013,4.013,0,1,0-4.764,0ZM38.442,28.6a2.079,2.079,0,0,1,.965,3.919.967.967,0,0,0-.517.856v2.322a.447.447,0,1,1-.895,0V33.371a.967.967,0,0,0-.517-.856,2.079,2.079,0,0,1,.965-3.919ZM21.968,45.624a5.366,5.366,0,1,0-6.89,0,9.119,9.119,0,0,0-5.661,8.427.967.967,0,0,0,.967.967H26.661a.967.967,0,0,0,.967-.967,9.119,9.119,0,0,0-5.661-8.427Zm-6.876-4.11a3.431,3.431,0,1,1,3.432,3.431h0a3.435,3.435,0,0,1-3.43-3.431Zm-3.675,11.57a7.182,7.182,0,0,1,7.105-6.2h0a7.182,7.182,0,0,1,7.105,6.2Z" transform="translate(-2.94 -1)" fill="#9d2a00"/>
</svg>
