<svg xmlns="http://www.w3.org/2000/svg" width="44.88" height="53.855" viewBox="0 0 44.88 53.855">
  <g id="Grupo_1188680" data-name="Grupo 1188680" transform="translate(-40)">
    <g id="Grupo_1188657" data-name="Grupo 1188657" transform="translate(50.771 38.596)">
      <g id="Grupo_1188656" data-name="Grupo 1188656" transform="translate(0)">
        <path id="Trazado_1027169" data-name="Trazado 1027169" d="M138.693,344h-1.8a.9.9,0,0,0,0,1.8h1.8a.9.9,0,1,0,0-1.8Z" transform="translate(-136 -344)" fill="#1e4d3b"/>
      </g>
    </g>
    <g id="Grupo_1188659" data-name="Grupo 1188659" transform="translate(56.157 38.596)">
      <g id="Grupo_1188658" data-name="Grupo 1188658" transform="translate(0)">
        <path id="Trazado_1027170" data-name="Trazado 1027170" d="M206.44,344H184.9a.9.9,0,0,0,0,1.8H206.44a.9.9,0,0,0,0-1.8Z" transform="translate(-184 -344)" fill="#1e4d3b"/>
      </g>
    </g>
    <g id="Grupo_1188661" data-name="Grupo 1188661" transform="translate(50.771 33.211)">
      <g id="Grupo_1188660" data-name="Grupo 1188660" transform="translate(0)">
        <path id="Trazado_1027171" data-name="Trazado 1027171" d="M138.693,296h-1.8a.9.9,0,0,0,0,1.8h1.8a.9.9,0,1,0,0-1.8Z" transform="translate(-136 -296)" fill="#1e4d3b"/>
      </g>
    </g>
    <g id="Grupo_1188663" data-name="Grupo 1188663" transform="translate(56.157 33.211)">
      <g id="Grupo_1188662" data-name="Grupo 1188662" transform="translate(0)">
        <path id="Trazado_1027172" data-name="Trazado 1027172" d="M206.44,296H184.9a.9.9,0,0,0,0,1.8H206.44a.9.9,0,0,0,0-1.8Z" transform="translate(-184 -296)" fill="#1e4d3b"/>
      </g>
    </g>
    <g id="Grupo_1188665" data-name="Grupo 1188665" transform="translate(50.771 27.825)">
      <g id="Grupo_1188664" data-name="Grupo 1188664" transform="translate(0)">
        <path id="Trazado_1027173" data-name="Trazado 1027173" d="M138.693,248h-1.8a.9.9,0,0,0,0,1.8h1.8a.9.9,0,0,0,0-1.8Z" transform="translate(-136 -248)" fill="#1e4d3b"/>
      </g>
    </g>
    <g id="Grupo_1188667" data-name="Grupo 1188667" transform="translate(56.157 27.825)">
      <g id="Grupo_1188666" data-name="Grupo 1188666" transform="translate(0)">
        <path id="Trazado_1027174" data-name="Trazado 1027174" d="M206.44,248H184.9a.9.9,0,0,0,0,1.8H206.44a.9.9,0,0,0,0-1.8Z" transform="translate(-184 -248)" fill="#1e4d3b"/>
      </g>
    </g>
    <g id="Grupo_1188669" data-name="Grupo 1188669" transform="translate(50.771 22.44)">
      <g id="Grupo_1188668" data-name="Grupo 1188668" transform="translate(0)">
        <path id="Trazado_1027175" data-name="Trazado 1027175" d="M138.693,200h-1.8a.9.9,0,0,0,0,1.8h1.8a.9.9,0,0,0,0-1.8Z" transform="translate(-136 -200)" fill="#1e4d3b"/>
      </g>
    </g>
    <g id="Grupo_1188671" data-name="Grupo 1188671" transform="translate(56.157 22.44)">
      <g id="Grupo_1188670" data-name="Grupo 1188670" transform="translate(0)">
        <path id="Trazado_1027176" data-name="Trazado 1027176" d="M206.44,200H184.9a.9.9,0,0,0,0,1.8H206.44a.9.9,0,0,0,0-1.8Z" transform="translate(-184 -200)" fill="#1e4d3b"/>
      </g>
    </g>
    <g id="Grupo_1188673" data-name="Grupo 1188673" transform="translate(50.771 17.054)">
      <g id="Grupo_1188672" data-name="Grupo 1188672" transform="translate(0)">
        <path id="Trazado_1027177" data-name="Trazado 1027177" d="M138.693,152h-1.8a.9.9,0,0,0,0,1.8h1.8a.9.9,0,0,0,0-1.8Z" transform="translate(-136 -152)" fill="#1e4d3b"/>
      </g>
    </g>
    <g id="Grupo_1188675" data-name="Grupo 1188675" transform="translate(56.157 17.054)">
      <g id="Grupo_1188674" data-name="Grupo 1188674" transform="translate(0)">
        <path id="Trazado_1027178" data-name="Trazado 1027178" d="M206.44,152H184.9a.9.9,0,0,0,0,1.8H206.44a.9.9,0,0,0,0-1.8Z" transform="translate(-184 -152)" fill="#1e4d3b"/>
      </g>
    </g>
    <g id="Grupo_1188677" data-name="Grupo 1188677" transform="translate(40)">
      <g id="Grupo_1188676" data-name="Grupo 1188676" transform="translate(0)">
        <path id="Trazado_1027179" data-name="Trazado 1027179" d="M84.868,13.407a.848.848,0,0,0-.046-.231c-.01-.029-.017-.057-.03-.084a.9.9,0,0,0-.18-.263L72.047.263a.9.9,0,0,0-.263-.18c-.028-.013-.056-.02-.083-.03a.894.894,0,0,0-.232-.047C71.452.01,71.435,0,71.416,0H46.283a.9.9,0,0,0-.9.9V3.59H40.9a.9.9,0,0,0-.9.9v48.47a.9.9,0,0,0,.9.9H78.6a.9.9,0,0,0,.9-.9V48.47h4.488a.9.9,0,0,0,.9-.9V13.464C84.88,13.444,84.87,13.427,84.868,13.407ZM72.313,3.064l9.5,9.5h-9.5Zm5.386,49H41.8V5.386h3.59V47.572a.9.9,0,0,0,.9.9H77.7Zm5.386-5.386h-35.9V1.8H70.518V13.464a.9.9,0,0,0,.9.9H83.084Z" transform="translate(-40)" fill="#1e4d3b"/>
      </g>
    </g>
    <g id="Grupo_1188679" data-name="Grupo 1188679" transform="translate(50.771 8.078)">
      <g id="Grupo_1188678" data-name="Grupo 1188678" transform="translate(0)">
        <path id="Trazado_1027180" data-name="Trazado 1027180" d="M142.283,72H136.9a.9.9,0,0,0-.9.9v5.386a.9.9,0,0,0,.9.9h5.386a.9.9,0,0,0,.9-.9V72.9A.9.9,0,0,0,142.283,72Zm-.9,5.386H137.8V73.8h3.59Z" transform="translate(-136 -72)" fill="#1e4d3b"/>
      </g>
    </g>
  </g>
</svg>
