<svg xmlns="http://www.w3.org/2000/svg" width="58.001" height="60.007" viewBox="0 0 58.001 60.007">
  <g id="Grupo_1187203" data-name="Grupo 1187203" transform="translate(-2 -2)">
    <path id="Trazado_1023676" data-name="Trazado 1023676" d="M13,10H58V47.4A13.6,13.6,0,0,1,44.4,61H13V10Z" fill="#6f7e5d"/>
    <path id="Trazado_1023677" data-name="Trazado 1023677" d="M9,7H54V57H9Z" fill="#ded9af"/>
    <path id="Trazado_1023678" data-name="Trazado 1023678" d="M44,38V33a2,2,0,0,1,4,0v5Z" fill="#5b5e33"/>
    <circle id="Elipse_13727" data-name="Elipse 13727" cx="13" cy="13" r="13" transform="translate(33 35)" fill="#7a9b69"/>
    <path id="Trazado_1023679" data-name="Trazado 1023679" d="M7,49a2,2,0,0,0,0,4H23V49Z" fill="#f9a236"/>
    <path id="Trazado_1023680" data-name="Trazado 1023680" d="M29,51l-2-2H23v4h4Z" fill="#d85e27"/>
    <path id="Trazado_1023681" data-name="Trazado 1023681" d="M47,9c0,5-6,8-6,8s-6-3-6-8A6,6,0,0,1,47,9Z" fill="#f9a236"/>
    <path id="Trazado_1023682" data-name="Trazado 1023682" d="M6,15h7l6,3V15h2a3,3,0,0,0,3-3V6a3,3,0,0,0-3-3H6A3,3,0,0,0,3,6v6A3,3,0,0,0,6,15Z" fill="#6f7e5d"/>
    <path id="Trazado_1023683" data-name="Trazado 1023683" d="M44,50l5.5,1.5L48,46l-5.5-1.5Z" fill="#ef5249"/>
    <path id="Trazado_1023684" data-name="Trazado 1023684" d="M44,50l5.5,1.5L48,46Z" fill="#ccdce5"/>
    <circle id="Elipse_13728" data-name="Elipse 13728" cx="2" cy="2" r="2" transform="translate(39 7)" fill="#d85e27"/>
    <path id="Trazado_1023685" data-name="Trazado 1023685" d="M49,34.332V33a3.06,3.06,0,0,0-.035-.348A3.942,3.942,0,0,0,50,30a4,4,0,1,0-8,0,3.942,3.942,0,0,0,1.035,2.652A3.059,3.059,0,0,0,43,33v1.332a14,14,0,1,0,6,0ZM46,28a1.972,1.972,0,0,1,1.871,2.674,2.934,2.934,0,0,0-3.742,0A1.972,1.972,0,0,1,46,28Zm-1,5a1,1,0,0,1,2,0v1.051c-.332-.024-.662-.051-1-.051s-.668.027-1,.051Zm1,27A12,12,0,1,1,58,48,12,12,0,0,1,46,60Z"/>
    <path id="Trazado_1023686" data-name="Trazado 1023686" d="M38.636,53.364h2v2h-2Z" transform="translate(-26.832 43.95) rotate(-45)"/>
    <path id="Trazado_1023687" data-name="Trazado 1023687" d="M51.364,40.636h2v2h-2Z" transform="translate(-14.104 49.222) rotate(-45)"/>
    <path id="Trazado_1023688" data-name="Trazado 1023688" d="M38.636,40.636h2v2h-2Z" transform="translate(-17.832 40.222) rotate(-45)"/>
    <path id="Trazado_1023689" data-name="Trazado 1023689" d="M51.364,53.364h2v2h-2Z" transform="translate(-23.104 52.95) rotate(-45)"/>
    <path id="Trazado_1023690" data-name="Trazado 1023690" d="M36,47h2v2H36Z"/>
    <path id="Trazado_1023691" data-name="Trazado 1023691" d="M54,47h2v2H54Z"/>
    <path id="Trazado_1023692" data-name="Trazado 1023692" d="M45,38h2v2H45Z"/>
    <path id="Trazado_1023693" data-name="Trazado 1023693" d="M45,56h2v2H45Z"/>
    <path id="Trazado_1023694" data-name="Trazado 1023694" d="M49.293,43.293l-1.59,1.59-4.94-1.348a1,1,0,0,0-1.228,1.228l1.348,4.94-1.59,1.59,1.414,1.414,1.59-1.59,4.94,1.348a1.028,1.028,0,0,0,.263.035,1,1,0,0,0,.965-1.263L49.117,46.3l1.59-1.59Zm-4.479,5.893-.889-3.261,3.261.889.889,3.261Z"/>
    <path id="Trazado_1023695" data-name="Trazado 1023695" d="M17.5,34h16a3.5,3.5,0,1,0,0-7h-17a1.5,1.5,0,0,1,0-3h22A3.5,3.5,0,0,0,42,20.5V20H40v.5A1.5,1.5,0,0,1,38.5,22h-22a3.5,3.5,0,0,0,0,7h17a1.5,1.5,0,0,1,0,3h-16a3.5,3.5,0,0,0,0,7h6A1.5,1.5,0,0,1,25,40.5V42h2V40.5A3.5,3.5,0,0,0,23.5,37h-6a1.5,1.5,0,0,1,0-3Z"/>
    <path id="Trazado_1023696" data-name="Trazado 1023696" d="M25,44h2v2H25Z"/>
    <path id="Trazado_1023697" data-name="Trazado 1023697" d="M41,12a3,3,0,1,0-3-3A3,3,0,0,0,41,12Zm0-4a1,1,0,1,1-1,1A1,1,0,0,1,41,8Z"/>
    <path id="Trazado_1023698" data-name="Trazado 1023698" d="M6,16H8V48H7a3,3,0,0,0,0,6H8v3a1,1,0,0,0,1,1h3v3a1,1,0,0,0,1,1H37V60H14V58H33V56H10V54H27a1,1,0,0,0,.707-.293l2-2a1,1,0,0,0,0-1.414l-2-2A1,1,0,0,0,27,48H10V16h2.764l5.789,2.9A1,1,0,0,0,20,18V16h1a4,4,0,0,0,4-4V8h9.08A7.026,7.026,0,0,0,34,9c0,5.554,6.285,8.761,6.553,8.9a1,1,0,0,0,.894,0C41.715,17.761,48,14.554,48,9a7.025,7.025,0,0,0-.08-1H53V34h2V11h2V37h2V10a1,1,0,0,0-1-1H55V7a1,1,0,0,0-1-1H47.315a6.985,6.985,0,0,0-12.63,0H25a4,4,0,0,0-4-4H6A4,4,0,0,0,2,6v6a4,4,0,0,0,4,4ZM6,51a1,1,0,0,1,1-1H22v2H7A1,1,0,0,1,6,51Zm21.586,0-1,1H24V50h2.586ZM41,4a5.006,5.006,0,0,1,5,5c0,3.57-3.7,6.08-5,6.854C39.7,15.08,36,12.57,36,9a5.006,5.006,0,0,1,5-5ZM4,6A2,2,0,0,1,6,4H21a2,2,0,0,1,2,2v6a2,2,0,0,1-2,2H19a1,1,0,0,0-1,1v1.382L13.447,14.1A1,1,0,0,0,13,14H6a2,2,0,0,1-2-2Z"/>
    <path id="Trazado_1023699" data-name="Trazado 1023699" d="M6,6H8V8H6Z"/>
    <path id="Trazado_1023700" data-name="Trazado 1023700" d="M10,6H21V8H10Z"/>
    <path id="Trazado_1023701" data-name="Trazado 1023701" d="M6,10H21v2H6Z"/>
  </g>
</svg>
